<?xml version="1.0" encoding="UTF-8"?>
<svg xmlns="http://www.w3.org/2000/svg" xmlns:xlink="http://www.w3.org/1999/xlink" version="1.1" width="512" height="512" x="0" y="0" viewBox="0 0 500 500" style="enable-background:new 0 0 512 512" xml:space="preserve" class="">
  <g>
    <path fill-rule="evenodd" d="M331.658 131.576c1.254 0 2.482.332 3.56.953l36.941 25.735-17.324-26.844a7.067 7.067 0 0 1 3.14-6.543c11.288-7.521 18.051-20.031 18.051-33.475 0-22.163-18.032-40.182-40.188-40.182h-37.142c-22.162 0-40.175 18.019-40.175 40.182 0 22.15 18.013 40.175 40.175 40.175h32.962zm93.312 51.577c-12.159 0-22.282 9.345-23.328 21.391l-24.626 19.919c-2.288 1.849-4.814 2.745-7.753 2.745h-69.101c-8.856 0-16.064 7.208-16.064 16.07 0 8.856 7.195 16.07 16.064 16.07h77.424c4.995 0 9.301-1.529 13.187-4.676l10.781-8.725v47.672c0 4.632-3.773 8.411-8.392 8.411h-19.649c-23.961 0-44.594 15.531-51.207 38.565L290.83 450.222h33.438l24.325-84.72c2.269-7.916 9.238-13.168 17.48-13.168h29.044c29.37 0 53.262-23.892 53.262-53.269v-92.498c.001-12.916-10.497-23.414-23.409-23.414zM256.421 57.28c-20.527 25.39-14.152 62.802 13.419 80.157-10.072 11.896-24.745 18.809-40.514 18.809h-42.075a7.119 7.119 0 0 0-3.541.953l-35.506 33.425 7.534-36.716a7.105 7.105 0 0 0-3.133-6.543c-14.973-9.959-23.911-26.537-23.911-44.35 0-29.351 23.867-53.237 53.231-53.237h47.402c9.538-.001 18.909 2.632 27.094 7.502zM441.83 366.518c1.454 0 2.701 1.241 2.701 2.702v78.301c0 1.46-1.247 2.701-2.701 2.701H339.649l21.429-74.66c1.586-5.497 6.299-9.044 11.996-9.044zM75.03 167.715c14.322 0 25.961-11.651 25.961-25.967 0-14.322-11.645-25.967-25.961-25.967-14.315 0-25.961 11.645-25.961 25.967 0 14.316 11.645 25.967 25.961 25.967zm349.94 0c14.315 0 25.961-11.651 25.961-25.967 0-14.322-11.645-25.967-25.961-25.967-14.328 0-25.967 11.645-25.967 25.967 0 14.316 11.639 25.967 25.967 25.967zM126.907 366.518H58.17c-1.467 0-2.708 1.241-2.708 2.702v78.301c0 1.46 1.241 2.701 2.708 2.701h102.175l-21.435-74.66c-1.58-5.496-6.287-9.044-12.003-9.044zm50.78-25.922c-6.612-23.034-27.233-38.565-51.194-38.565h-19.649c-4.632 0-8.405-3.779-8.405-8.411v-48.311l67.578 34.503c4.958 3.153 11.156 4.569 16.615 1.705a13.366 13.366 0 0 0 5.027-4.569c5.39-8.286.326-17.631-7.233-22.25l-82.093-50.279c-1.097-11.984-11.182-21.266-23.303-21.266-12.911 0-23.416 10.498-23.416 23.416v92.498c0 29.376 23.898 53.269 53.262 53.269h29.05c8.236 0 15.205 5.259 17.48 13.175l24.318 84.713h33.438z" clip-rule="evenodd" fill="#000000" opacity="1" data-original="#000000" class=""/>
  </g>
</svg>
