<?xml version="1.0" encoding="UTF-8"?>
<svg xmlns="http://www.w3.org/2000/svg" xmlns:xlink="http://www.w3.org/1999/xlink" version="1.1" width="512" height="512" x="0" y="0" viewBox="0 0 512 512" style="enable-background:new 0 0 512 512" xml:space="preserve">
  <g>
    <path d="M222.551 37.887c-3.732-16.802-18.714-29.369-36.639-29.369s-32.907 12.567-36.639 29.369c-21.923 3.346-36.685 9.595-36.685 16.76 0 6.925 13.795 12.998 34.519 16.417.193 21.271 17.489 38.457 38.805 38.457s38.613-17.186 38.805-38.457c20.724-3.419 34.519-9.492 34.519-16.417 0-7.164-14.762-13.414-36.685-16.76zM135.326 121.893c-24.133 0-43.866 19.781-43.988 44.192V207.2L52.3 196.304v-42.726h16.306c7.806 0 14.133-6.327 14.133-14.133V51.769a8.302 8.302 0 0 0-16.604 0v51.715a4.159 4.159 0 0 1-4.159 4.159h-8.007a4.159 4.159 0 0 1-4.159-4.159V51.768a8.302 8.302 0 0 0-16.604 0v51.715a4.159 4.159 0 0 1-4.159 4.159H21.04a4.159 4.159 0 0 1-4.159-4.159V51.768a8.302 8.302 0 0 0-8.302-8.302C3.992 43.466 0 47.183 0 51.768v87.676c0 7.806 6.05 14.133 13.856 14.133h16.307v40.726c-5.112 2.134-9.239 6.489-10.844 12.239-2.572 9.216 2.225 18.733 10.844 22.311v213.062c0 6.113 4.955 11.069 11.069 11.069 6.113 0 11.069-4.955 11.069-11.069V235.192l52.731 14.717c11.936 3.335 23.763-5.662 23.763-18.039v-65.692a3.759 3.759 0 0 1 7.518.035v3.588h14.733v-47.908h-15.72zM235.793 370.439l-19.448-14.223-25.373 5.751v119.039c0 12.411 10.062 22.474 22.474 22.474s22.474-10.062 22.474-22.474c0-21.58-.055-64.194-.127-110.567zM167.648 121.893v47.908h36.527v-47.908h-36.527z" fill="#000000" opacity="1" data-original="#000000"/>
    <path d="M510.893 449.278c-5.019-22.14-25.781-36.616-47.81-34.33-6.511.676-12.462 2.683-17.714 5.722l-17.888-16.209 8.782-13.815 24.68-38.825c5.281-8.309-.72-19.196-10.56-19.174l-201.853.466-19.837-14.509a10.752 10.752 0 0 0-8.727-1.809l-51.75 11.73c-5.793 1.313-9.426 7.074-8.112 12.867 1.313 5.793 7.074 9.428 12.868 8.113l46.976-10.647 32.18 23.537 16.497 55.002-3.733 65.041c-.611 10.628 7.565 19.769 18.211 20.329 13.433.705 13.21.713 14.247.713 10.288 0 19.521-6.513 22.977-16.208l20.216-56.729 60.676-.14a17.867 17.867 0 0 0 14.536-7.541l14.156 12.827a44.338 44.338 0 0 0-5.58 33.211c5.416 23.902 29.186 38.887 53.092 33.469 23.901-5.415 38.888-29.186 33.47-53.091zm-210.836 30.773a2.889 2.889 0 0 1-2.714 1.918l-10.851-.564 2.913-50.742 28.275-.066-17.623 49.454zm172.131-4.516c-11.091 2.512-22.208-4.284-24.777-15.62a20.648 20.648 0 0 1-.135-8.488l13.111 11.88c4.4 3.987 11.202 3.655 15.193-.749 3.988-4.402 3.653-11.204-.749-15.193l-13.097-11.867c1.763-.52 3.547-.877 5.888-.877 9.731 0 18.032 6.636 20.186 16.135 2.524 11.139-4.484 22.254-15.62 24.779z" fill="#000000" opacity="1" data-original="#000000"/>
    <path d="M236.497 121.894h-15.719v47.907h14.734v-3.977a3.761 3.761 0 0 1 7.522-.001c0 .086-.001.174-.004.262v137.589c0 2.184.393 4.271 1.08 6.22l17.061 12.479c10.863.338 19.315-8.383 19.315-18.699V165.991c-.122-24.315-19.856-44.097-43.989-44.097z" fill="#000000" opacity="1" data-original="#000000"/>
    <path d="M235.512 186.404h-99.2l.009 294.601c0 12.411 10.062 22.474 22.474 22.474s22.474-10.062 22.474-22.474V364.166l-4.734 1.073c-14.482 3.284-28.886-5.797-32.169-20.28-3.283-14.484 5.797-28.886 20.28-32.169l16.623-3.768v-7.652h9.704v5.453l25.423-5.762c6.6-1.497 13.48-.44 19.291 2.884-.092-56.226-.175-105.878-.175-117.541zm-22.273 56.224c0 6.113-4.955 11.068-11.068 11.068h-32.514c-6.113 0-11.068-4.955-11.068-11.068V211.52h-.002a3.76 3.76 0 0 1 3.76-3.76h47.133a3.76 3.76 0 0 1 3.76 3.76v31.108zM369.456 254.928c-7.404-14.733-43.972-39.121-63.346-51.315-5.574-3.508-12.852.175-13.361 6.706-1.776 22.821-4.029 66.726 3.376 81.461 8.973 17.857 30.971 29.805 49.931 25.404a465.85 465.85 0 0 1-9.493-18.043c-14.595-5.362-25.461-11.964-31.701-17.099a1.275 1.275 0 0 1-.397-1.396c.17-.503.634-.848 1.165-.866 5.395-.181 13.367.356 22.871 2.333-7.541-16.761-15.759-38.59-19.341-53.656-.138-.58.144-1.178.679-1.44s1.181-.121 1.556.342c6.658 8.231 18.433 24.744 30.978 47.904 4.212-8.786 8.601-15.427 11.988-19.59a1.277 1.277 0 0 1 2.265.762c.284 8.222-1.145 20.958-5.626 35.554a465.196 465.196 0 0 1 8.611 18.519c15.208-12.47 18.905-37.553 9.845-55.58zM463.03 174.596c-.228-6.581-7.364-10.536-13.052-7.288-19.879 11.348-57.47 34.144-65.503 48.546-9.735 17.456-7.267 42.368 7.024 55.583a465.587 465.587 0 0 1 9.599-17.98c-3.761-15.086-4.386-27.856-3.657-35.837a1.276 1.276 0 0 1 2.303-.637c3.183 4.366 7.209 11.258 10.909 20.218 13.179-21.42 25.84-37.611 33.528-46.089a1.276 1.276 0 0 1 2.168 1.225c-3.213 10.634-10.43 29.698-22.245 52.506 9.644-1.452 17.592-1.553 22.949-1.086a1.276 1.276 0 0 1 .64 2.302c-6.375 4.639-17.633 10.717-32.561 15.312a467.155 467.155 0 0 1-10.493 17.529c18.859 5.577 41.687-5.453 51.513-23.074 8.031-14.399 7.67-58.352 6.878-81.23z" fill="#000000" opacity="1" data-original="#000000"/>
  </g>
</svg>
